<svg width="197" height="40" viewBox="0 0 197 40" fill="none" xmlns="http://www.w3.org/2000/svg">
<path d="M80.1202 2.30256V30.8001H75.5203V28.1895C73.9226 30.137 71.6201 31.27 68.7379 31.27C62.8536 31.27 58.5617 26.6701 58.5617 20.5508C58.5617 14.3897 62.7335 9.78983 68.6178 9.78983C71.3485 9.78983 73.5676 10.8028 75.1653 12.5205V2.30256H80.1202ZM75.3637 20.5456C75.3637 16.7654 72.9462 14.1913 69.401 14.1913C66.0072 14.1913 63.5167 16.8803 63.5167 20.5456C63.5167 24.2109 66.0124 26.8999 69.401 26.8999C72.9462 26.8999 75.3637 24.2892 75.3637 20.5456Z" fill="#1C0C3F"/>
<path d="M94.5464 27.0565C97.3555 27.0565 98.8331 26.0018 99.7729 24.1692L103.673 26.6649C102.112 29.1972 99.3865 31.3066 94.395 31.3066C87.8476 31.3066 83.5557 26.6649 83.5557 20.5456C83.5557 14.5829 88.1922 9.78461 94.0817 9.78461C100.551 9.78461 104.488 14.8545 104.488 20.1175C104.488 20.8954 104.451 21.6786 104.373 22.1068H88.4271C89.085 25.1873 91.4659 27.0565 94.5464 27.0565ZM99.7311 18.6399C99.1829 15.5593 97.0787 13.6901 94.1966 13.6901C91.3145 13.6901 89.0484 15.481 88.4271 18.6399H99.7311Z" fill="#1C0C3F"/>
<path d="M126.317 10.2545L118.48 30.8001H112.789L104.952 10.2545H110.1L115.635 26.0436L121.169 10.2545H126.317Z" fill="#1C0C3F"/>
<path d="M148.461 10.2545V30.8001H143.861V28.0329C142.341 30.0587 140.039 31.27 137.078 31.27C131.194 31.27 126.902 26.6701 126.902 20.5508C126.902 14.3897 131.189 10.1031 137.078 10.1031C140.039 10.1031 142.341 11.1943 143.861 13.1836V10.2597H148.461V10.2545ZM143.704 20.5456C143.704 16.7654 141.287 14.1913 137.742 14.1913C134.348 14.1913 131.857 16.8803 131.857 20.5456C131.857 24.2109 134.353 26.8999 137.742 26.8999C141.292 26.8999 143.704 24.2892 143.704 20.5456Z" fill="#1C0C3F"/>
<path d="M163.864 9.78983V14.4315C160.277 14.4315 158.016 16.3425 158.016 19.1098V30.8054H153.066V10.2598H157.744V12.5623C159.144 10.9176 161.29 9.78983 163.864 9.78983Z" fill="#1C0C3F"/>
<path d="M166.746 10.2545H171.695V30.8001H166.746V10.2545Z" fill="#1C0C3F"/>
<path d="M196.805 10.2545V30.8001H192.205V28.0329C190.685 30.0587 188.383 31.27 185.422 31.27C179.538 31.27 175.246 26.6701 175.246 20.5508C175.246 14.3897 179.533 10.1031 185.422 10.1031C188.383 10.1031 190.685 11.1943 192.205 13.1836V10.2597H196.805V10.2545ZM192.048 20.5456C192.048 16.7654 189.631 14.1913 186.085 14.1913C182.692 14.1913 180.201 16.8803 180.201 20.5456C180.201 24.2109 182.697 26.8999 186.085 26.8999C189.631 26.8999 192.048 24.2892 192.048 20.5456Z" fill="#1C0C3F"/>
<path d="M171.695 2.30255H166.746V7.25229H171.695V2.30255Z" fill="#1C0C3F"/>
<path d="M7.78993 37.7758C7.81082 38.9975 8.86029 39.953 10.0821 39.953H21.4174C22.6392 39.953 23.6939 38.9975 23.7095 37.7758C23.7304 36.5383 22.7279 35.5254 21.4957 35.5254H9.99853C8.76631 35.5254 7.76905 36.5331 7.78993 37.7758Z" fill="#5E49FF"/>
<path d="M15.4913 30.6279C15.4913 31.8496 16.5356 32.8417 17.82 32.8417H29.902C31.1864 32.8417 32.2307 31.8496 32.2307 30.6279C32.2307 29.4061 31.1864 28.4141 29.902 28.4141H17.82C16.5304 28.4141 15.4913 29.4061 15.4913 30.6279Z" fill="#5E49FF"/>
<path d="M9.17896 4.47983H2.23992C1.00248 4.47983 0 3.47736 0 2.23992C0 1.00248 1.00248 0 2.23992 0H9.17896C10.4164 0 11.4189 1.00248 11.4189 2.23992C11.4136 3.47736 10.4164 4.47983 9.17896 4.47983Z" fill="#3BD42D"/>
<path d="M15.8727 11.5181H8.93364C7.69621 11.5181 6.69373 10.5156 6.69373 9.27816C6.69373 8.04072 7.69621 7.03825 8.93364 7.03825H15.8727C17.1101 7.03825 18.1126 8.04072 18.1126 9.27816C18.1126 10.5156 17.1101 11.5181 15.8727 11.5181Z" fill="#3BD42D"/>
<path d="M39.3941 11.5181H22.1536C20.9161 11.5181 19.9136 10.5156 19.9136 9.27816C19.9136 8.04072 20.9161 7.03825 22.1536 7.03825H39.3941C40.6316 7.03825 41.634 8.04072 41.634 9.27816C41.6288 10.5156 40.6316 11.5181 39.3941 11.5181Z" fill="#25CBD3"/>
<path d="M33.9486 18.666H16.708C15.4706 18.666 14.4681 17.6635 14.4681 16.4261C14.4681 15.1886 15.4706 14.1861 16.708 14.1861H33.9486C35.186 14.1861 36.1885 15.1886 36.1885 16.4261C36.1833 17.6635 35.1808 18.666 33.9486 18.666Z" fill="#5E49FF"/>
<path d="M42.7935 25.7773H25.5529C24.3155 25.7773 23.313 24.7748 23.313 23.5374C23.313 22.3 24.3155 21.2975 25.5529 21.2975H42.7935C44.0309 21.2975 45.0334 22.3 45.0334 23.5374C45.0334 24.7748 44.0309 25.7773 42.7935 25.7773Z" fill="#25CBD3"/>
<path d="M25.5161 4.47983H15.6271C14.3896 4.47983 13.3871 3.47736 13.3871 2.23992C13.3871 1.00248 14.3896 0 15.6271 0H25.5161C26.7535 0 27.756 1.00248 27.756 2.23992C27.756 3.47736 26.7535 4.47983 25.5161 4.47983Z" fill="#5E49FF"/>
<path d="M34.0161 4.47983H31.9015C30.664 4.47983 29.6616 3.47736 29.6616 2.23992C29.6616 1.00248 30.664 0 31.9015 0H34.0161C35.2535 0 36.256 1.00248 36.256 2.23992C36.256 3.47736 35.2535 4.47983 34.0161 4.47983Z" fill="#25CBD3"/>
<path d="M42.5845 18.666H40.4699C39.2325 18.666 38.23 17.6635 38.23 16.4261C38.23 15.1886 39.2325 14.1861 40.4699 14.1861H42.5845C43.8219 14.1861 44.8244 15.1886 44.8244 16.4261C44.8244 17.6635 43.8219 18.666 42.5845 18.666Z" fill="#25CBD3"/>
<path d="M39.3941 32.8887H36.3397C35.1022 32.8887 34.0997 31.8862 34.0997 30.6488C34.0997 29.4113 35.1022 28.4088 36.3397 28.4088H39.3941C40.6315 28.4088 41.634 29.4113 41.634 30.6488C41.6288 31.8862 40.6315 32.8887 39.3941 32.8887Z" fill="#25CBD3"/>
<path d="M3.97337 39.9686H2.23992C1.00248 39.9686 0 38.9662 0 37.7287C0 36.4913 1.00248 35.4888 2.23992 35.4888H3.97337C5.21081 35.4888 6.21329 36.4913 6.21329 37.7287C6.21329 38.9662 5.21081 39.9686 3.97337 39.9686Z" fill="#3BD42D"/>
<path d="M34.0162 40H27.8081C26.5707 40 25.5682 38.9975 25.5682 37.7601C25.5682 36.5227 26.5707 35.5202 27.8081 35.5202H34.0162C35.2537 35.5202 36.2561 36.5227 36.2561 37.7601C36.2561 38.9975 35.2537 40 34.0162 40Z" fill="#25CBD3"/>
</svg>
