<svg width="32" height="32" viewBox="0 0 32 32" fill="none" xmlns="http://www.w3.org/2000/svg">
<path d="M15 5C13.707 5 12.605 5.844 12.187 7H4V9H12.188C12.605 10.156 13.707 11 15 11C16.293 11 17.395 10.156 17.813 9H28V7H17.812C17.395 5.844 16.294 5 15 5ZM15 7C15.563 7 16 7.438 16 8C16 8.563 15.562 9 15 9C14.437 9 14 8.562 14 8C14 7.437 14.438 7 15 7ZM22 13C20.707 13 19.605 13.844 19.187 15H4V17H19.188C19.605 18.156 20.707 19 22 19C23.293 19 24.395 18.156 24.813 17H28V15H24.812C24.395 13.844 23.293 13 22 13ZM22 15C22.563 15 23 15.438 23 16C23 16.563 22.562 17 22 17C21.437 17 21 16.562 21 16C21 15.437 21.438 15 22 15ZM11 21C9.707 21 8.605 21.844 8.187 23H4V25H8.188C8.605 26.156 9.707 27 11 27C12.293 27 13.395 26.156 13.813 25H28V23H13.812C13.395 21.844 12.293 21 11 21ZM11 23C11.563 23 12 23.438 12 24C12 24.563 11.562 25 11 25C10.437 25 10 24.562 10 24C10 23.437 10.438 23 11 23Z" fill="#5E49FF"/>
</svg>
